<svg id="Layer_1" data-name="Layer 1" xmlns="http://www.w3.org/2000/svg" xmlns:xlink="http://www.w3.org/1999/xlink" viewBox="0 0 25 25.81"><defs><style>.cls-1,.cls-10,.cls-2,.cls-3,.cls-4,.cls-5,.cls-6,.cls-7,.cls-8,.cls-9{stroke:#009245;stroke-miterlimit:10;}.cls-1{fill:url(#Sky);}.cls-2{fill:url(#Sky-2);}.cls-3{fill:url(#Sky-3);}.cls-4{fill:url(#Sky-4);}.cls-5{fill:url(#Sky-5);}.cls-6{fill:url(#Sky-6);}.cls-7{fill:url(#Sky-7);}.cls-8{fill:url(#Sky-8);}.cls-9{fill:url(#Sky-9);}.cls-10{fill:url(#Sky-10);}</style><linearGradient id="Sky" x1="0.5" y1="12.68" x2="12.26" y2="12.68" gradientUnits="userSpaceOnUse"><stop offset="0" stop-color="#cce0f4"/><stop offset="0.06" stop-color="#c3dcf2"/><stop offset="0.17" stop-color="#a9d2ee"/><stop offset="0.31" stop-color="#80c2e7"/><stop offset="0.46" stop-color="#47acde"/><stop offset="0.57" stop-color="#1e9cd7"/><stop offset="0.87" stop-color="#0075be"/><stop offset="0.99" stop-color="#005b97"/></linearGradient><linearGradient id="Sky-2" x1="12.36" y1="12.7" x2="24.5" y2="12.7" xlink:href="#Sky"/><linearGradient id="Sky-3" x1="2.86" y1="9.91" x2="10.43" y2="9.91" xlink:href="#Sky"/><linearGradient id="Sky-4" x1="14.19" y1="10" x2="21.76" y2="10" xlink:href="#Sky"/><linearGradient id="Sky-5" x1="2.95" y1="13.53" x2="10.52" y2="13.53" xlink:href="#Sky"/><linearGradient id="Sky-6" x1="2.95" y1="16.48" x2="10.52" y2="16.48" xlink:href="#Sky"/><linearGradient id="Sky-7" x1="2.95" y1="19.15" x2="10.52" y2="19.15" xlink:href="#Sky"/><linearGradient id="Sky-8" x1="14.03" y1="13.72" x2="21.92" y2="13.72" xlink:href="#Sky"/><linearGradient id="Sky-9" x1="14.03" y1="19.53" x2="21.92" y2="19.53" xlink:href="#Sky"/><linearGradient id="Sky-10" x1="14.03" y1="16.38" x2="21.92" y2="16.38" xlink:href="#Sky"/></defs><title>Boky</title><path class="cls-1" d="M.5,1.11V18.29a.62.62,0,0,0,.3.54l10.66,6a.55.55,0,0,0,.8-.54V9.17A.66.66,0,0,0,12,8.66L1.36.61A.55.55,0,0,0,.5,1.11Z"/><path class="cls-2" d="M24.24,1.15l.26,17.78a.62.62,0,0,1-.3.54l-11,5.33a.56.56,0,0,1-.8-.55l.1-15.11a.62.62,0,0,1,.24-.5l10.68-8a.55.55,0,0,1,.86.51Z"/><line class="cls-3" x1="2.86" y1="7.72" x2="10.43" y2="12.1"/><line class="cls-4" x1="21.76" y1="7.82" x2="14.19" y2="12.19"/><line class="cls-5" x1="2.95" y1="11.34" x2="10.52" y2="15.71"/><line class="cls-6" x1="2.95" y1="14.29" x2="10.52" y2="18.67"/><line class="cls-7" x1="2.95" y1="16.96" x2="10.52" y2="21.33"/><line class="cls-8" x1="21.92" y1="11.84" x2="14.03" y2="15.6"/><line class="cls-9" x1="21.92" y1="17.65" x2="14.03" y2="21.41"/><line class="cls-10" x1="21.92" y1="14.51" x2="14.03" y2="18.26"/></svg>